<?xml version="1.0" encoding="utf-8"?>
<!-- Generator: Adobe Illustrator 23.0.4, SVG Export Plug-In . SVG Version: 6.00 Build 0)  -->
<svg version="1.1" id="Layer_1" xmlns="http://www.w3.org/2000/svg" xmlns:xlink="http://www.w3.org/1999/xlink" x="0px" y="0px"
	 viewBox="0 0 234 24" style="enable-background:new 0 0 234 24;" xml:space="preserve">
<style type="text/css">
	.st0{fill:#33383D;}
	.st1{fill:#0073AB;}
</style>
<g>
	<path class="st0" d="M39.7,8.67h-3.65V6h10.27v2.67h-3.63V18H39.7V8.67z"/>
	<path class="st0" d="M57.27,18l-2.64-3.76h-1.47V18h-2.99V6h5.57c2.64,0,4.56,1.7,4.56,4.12c0,1.75-1,3.13-2.55,3.76l2.9,4.12
		H57.27z M53.17,11.52h2.31c1.03,0,1.76-0.56,1.76-1.4c0-0.84-0.73-1.4-1.76-1.4h-2.31V11.52z"/>
	<path class="st0" d="M64.02,11.99c0-3.37,2.95-6.2,6.45-6.2c3.51,0,6.46,2.83,6.46,6.2s-2.95,6.22-6.46,6.22
		C66.97,18.21,64.02,15.37,64.02,11.99z M73.85,11.99c0-1.89-1.55-3.5-3.39-3.5c-1.83,0-3.39,1.61-3.39,3.5
		c0,1.9,1.55,3.51,3.39,3.51C72.3,15.51,73.85,13.9,73.85,11.99z"/>
	<path class="st0" d="M83.32,13.86L78.67,6h3.44l2.71,5.07L87.65,6h3.32l-4.65,7.86V18h-3V13.86z"/>
	<path class="st0" d="M105.72,8.67h-3.65V6h10.27v2.67h-3.63V18h-2.99V8.67z"/>
	<path class="st0" d="M119.19,8.67v1.87h5.87v2.67h-5.87v2.11h6.46V18h-9.45V6h9.45v2.67H119.19z"/>
	<path class="st0" d="M148.56,6h5.57c2.64,0,4.56,1.7,4.56,4.12c0,2.43-1.92,4.12-4.56,4.12h-2.59V18h-2.99V6z M153.86,11.52
		c1.03,0,1.76-0.56,1.76-1.4c0-0.84-0.73-1.4-1.76-1.4h-2.31v2.8H153.86z"/>
	<path class="st0" d="M171.17,15.33V18h-8.75V6h2.97v9.33H171.17z"/>
	<path class="st0" d="M178,8.67v1.87h5.87v2.67H178v2.11h6.46V18h-9.45V6h9.45v2.67H178z"/>
	<path class="st0" d="M215.18,16.26h-4.75l-0.7,1.75h-3.35l4.75-12h3.35l4.75,12h-3.35L215.18,16.26z M214.26,13.92l-1.45-3.69
		l-1.45,3.69H214.26z"/>
	<path class="st0" d="M222.8,6h2.99l5.22,7.09V6H234v12h-2.99l-5.22-7.09V18h-2.99V6z"/>
</g>
<rect x="0" y="11.99" class="st0" width="9.04" height="12.01"/>
<polygon class="st1" points="9.04,5.97 15.01,5.97 15.01,6.01 24,6.01 24,0 0,0 0,6.01 9.04,6.01 "/>
<rect x="15.01" y="11.99" class="st0" width="8.99" height="12.01"/>
<polygon class="st0" points="137.81,10.34 136.88,11.6 132.77,6.02 129.79,6.02 129.79,18.02 132.77,18.02 132.77,11.07 
	136.88,16.5 137.81,15.27 140.99,11.07 140.99,18.02 143.98,18.02 143.98,6.02 140.99,6.02 "/>
<polygon class="st0" points="196.66,10.34 195.73,11.6 191.62,6.02 188.64,6.02 188.64,18.02 191.62,18.02 191.62,11.07 
	195.73,16.5 196.66,15.27 199.84,11.07 199.84,18.02 202.83,18.02 202.83,6.02 199.84,6.02 "/>
</svg>
